<svg xmlns="http://www.w3.org/2000/svg" version="1.1" xmlns:xlink="http://www.w3.org/1999/xlink" xmlns:svgjs="http://svgjs.dev/svgjs" width="2000" height="1247" viewBox="0 0 2000 1247"><g transform="matrix(1,0,0,1,-1.2121212121212466,0.504858299595071)"><svg viewBox="0 0 396 247" data-background-color="#28353b" preserveAspectRatio="xMidYMid meet" height="1247" width="2000" xmlns="http://www.w3.org/2000/svg" xmlns:xlink="http://www.w3.org/1999/xlink"><defs></defs><g id="tight-bounds" transform="matrix(1,0,0,1,0.2400000000000091,-0.09999999999999432)"><svg viewBox="0 0 395.52 247.2" height="247.2" width="395.52"><g><svg></svg></g><g><svg viewBox="0 0 395.52 247.2" height="247.2" width="395.52"><g transform="matrix(4.378571428571428, 0, 0, 4.378571428571428, 89.21521027701242, 1)"><svg xmlns="http://www.w3.org/2000/svg" data-name="Glyph Icon" viewBox="7.210000038146973 4 49.58000183105469 56" x="0" y="0" height="56" width="49.58000183105469" class="icon-none" data-fill-palette-color="accent" id="none"><path d="M49.13 20.84l-16-9.26V4L55.7 17.05ZM32 50.52L16 41.26V22.74l16-9.26 16 9.26V41.26ZM30.91 11.58l-16 9.26L8.3 17.05 30.91 4ZM13.77 22.74V41.26L7.21 45.05V19Zm1.1 20.42l16 9.26V60L8.3 47Zm18.22 9.26l16-9.26L55.7 47 33.09 60ZM50.23 41.26V22.74L56.79 19v26.1Z" fill="#fe6152" data-fill-palette-color="accent"></path></svg></g><rect width="348.05760000000004" height="45.728268497229635" fill="#28353b" y="100.73586575138518" x="23.731199999999973" data-fill-palette-color="quaternary"></rect><g transform="matrix(1,0,0,1,39.55199999999999,105.37657453562815)"><svg viewBox="0 0 316.416 36.44685092874367" height="36.44685092874367" width="316.416"><g><svg viewBox="0 0 316.416 36.44685092874367" height="36.44685092874367" width="316.416"><g><svg viewBox="0 0 316.416 36.44685092874367" height="36.44685092874367" width="316.416"><g><svg viewBox="0 0 316.416 36.44685092874367" height="36.44685092874367" width="316.416"><g><svg viewBox="0 0 316.416 36.44685092874367" height="36.44685092874367" width="316.416"><g><svg viewBox="0 0 316.416 19.657689829728486" height="19.657689829728486" width="316.416"><g transform="matrix(1,0,0,1,0,0)"><svg width="316.416" viewBox="2.700000047683716 -33.25 543.2000122070312 33.75" height="19.657689829728486" data-palette-color="#ffffff"><path d="M11.33-15.73Q6.85-16.8 4.78-18.88 2.7-20.95 2.7-24.9 2.7-28.85 5.43-31.05 8.15-33.25 12.45-33.25 16.75-33.25 21.2-31.7L21.2-31.7 20.5-29.15Q16.35-30.65 12.88-30.65 9.4-30.65 7.55-29.18 5.7-27.7 5.7-24.9 5.7-22.1 7.2-20.65 8.7-19.2 13.18-18.03 17.65-16.85 19.65-14.93 21.65-13 21.65-8.72 21.65-4.45 18.78-1.98 15.9 0.5 11.35 0.5L11.35 0.5Q7.95 0.5 2.75-0.95L2.75-0.95 3.4-3.5Q8.5-2.1 11.6-2.1 14.7-2.1 16.7-3.83 18.7-5.55 18.7-8.65 18.7-11.75 17.25-13.2 15.8-14.65 11.33-15.73ZM35.8-12L35.8-12 31.2-12 31.2 0 28.45 0 28.45-32.75 35.8-32.75Q41.8-32.75 44.67-30.48 47.55-28.2 47.55-22.6 47.55-17 44.65-14.5 41.75-12 35.8-12ZM35.8-30.25L35.8-30.25 31.2-30.25 31.2-14.5 35.8-14.5Q40.4-14.5 42.52-16.35 44.65-18.2 44.65-22.55 44.65-26.9 42.55-28.58 40.45-30.25 35.8-30.25ZM53.75 0L50.85 0 60.25-32.75 65.05-32.75 74.09 0 71.15 0 69.09-7.55 55.85-7.55 53.75 0ZM56.55-10.05L68.45-10.05 63.05-30.25 62.2-30.25 56.55-10.05ZM89.04 0.5Q83.34 0.5 80.54-3.5 77.74-7.5 77.74-16.35 77.74-25.2 80.44-29.23 83.14-33.25 89.09-33.25L89.09-33.25Q92.99-33.25 96.94-32L96.94-32 96.94-25.4 94.19-25.4 94.19-29.85Q91.99-30.65 89.09-30.65L89.09-30.65Q84.59-30.65 82.64-27.3 80.69-23.95 80.69-16.45 80.69-8.95 82.79-5.55 84.89-2.15 89.09-2.15L89.09-2.15Q92.24-2.15 96.59-3.5L96.59-3.5 97.24-0.9Q93.14 0.5 89.04 0.5L89.04 0.5ZM121.29 0L104.09 0 104.09-32.75 121.14-32.75 121.14-30.3 106.84-30.3 106.84-17.9 119.79-17.9 119.79-15.45 106.84-15.45 106.84-2.45 121.29-2.45 121.29 0ZM171.29 0L154.09 0 154.09-32.75 171.14-32.75 171.14-30.3 156.84-30.3 156.84-17.9 169.79-17.9 169.79-15.45 156.84-15.45 156.84-2.45 171.29-2.45 171.29 0ZM197.43 0L194.68 0 194.68-5.15 180.43-27.55 180.28-27.55 180.28 0 177.53 0 177.53-32.75 180.23-32.75 194.53-10.1 194.68-10.1 194.68-32.75 197.43-32.75 197.43 0ZM213.28 0.5Q207.48 0.5 204.68-3.5 201.88-7.5 201.88-16.38 201.88-25.25 204.63-29.25 207.38-33.25 213.58-33.25L213.58-33.25Q217.63-33.25 222.08-31.65L222.08-31.65 221.38-29.1Q216.83-30.65 213.58-30.65L213.58-30.65Q208.88-30.65 206.86-27.33 204.83-24 204.83-16.48 204.83-8.95 206.93-5.53 209.03-2.1 213.28-2.1L213.28-2.1Q215.83-2.1 219.43-3.3L219.43-3.3 219.43-13.3 213.78-13.3 213.78-15.75 222.18-15.75 222.18-1.35Q217.03 0.5 213.28 0.5L213.28 0.5ZM244.48 0L230.53 0 230.53-2.5 236.18-2.5 236.18-30.25 230.53-30.25 230.53-32.75 244.48-32.75 244.48-30.25 238.93-30.25 238.93-2.5 244.48-2.5 244.48 0ZM272.43 0L269.68 0 269.68-5.15 255.43-27.55 255.28-27.55 255.28 0 252.53 0 252.53-32.75 255.23-32.75 269.53-10.1 269.68-10.1 269.68-32.75 272.43-32.75 272.43 0ZM296.27 0L279.07 0 279.07-32.75 296.12-32.75 296.12-30.3 281.82-30.3 281.82-17.9 294.77-17.9 294.77-15.45 281.82-15.45 281.82-2.45 296.27-2.45 296.27 0ZM321.27 0L304.07 0 304.07-32.75 321.12-32.75 321.12-30.3 306.82-30.3 306.82-17.9 319.77-17.9 319.77-15.45 306.82-15.45 306.82-2.45 321.27-2.45 321.27 0ZM338.37-13.45L338.37-13.45Q335.67-13.3 334.87-13.3L334.87-13.3 330.77-13.3 330.77 0 328.02 0 328.02-32.75 335.37-32.75Q341.47-32.75 344.32-30.65 347.17-28.55 347.17-23.25L347.17-23.25Q347.17-19.7 345.74-17.55 344.32-15.4 341.17-14.05L341.17-14.05Q344.57-7.6 347.37 0L347.37 0 344.37 0Q341.62-7.3 338.37-13.45ZM335.27-30.25L335.27-30.25 330.77-30.25 330.77-15.8 334.77-15.8Q339.37-15.8 341.82-17.48 344.27-19.15 344.27-23.25 344.27-27.35 342.09-28.8 339.92-30.25 335.27-30.25ZM361.29-15.73Q356.82-16.8 354.74-18.88 352.67-20.95 352.67-24.9 352.67-28.85 355.39-31.05 358.12-33.25 362.42-33.25 366.72-33.25 371.17-31.7L371.17-31.7 370.47-29.15Q366.32-30.65 362.84-30.65 359.37-30.65 357.52-29.18 355.67-27.7 355.67-24.9 355.67-22.1 357.17-20.65 358.67-19.2 363.14-18.03 367.62-16.85 369.62-14.93 371.62-13 371.62-8.72 371.62-4.45 368.74-1.98 365.87 0.5 361.32 0.5L361.32 0.5Q357.92 0.5 352.72-0.95L352.72-0.95 353.37-3.5Q358.47-2.1 361.57-2.1 364.67-2.1 366.67-3.83 368.67-5.55 368.67-8.65 368.67-11.75 367.22-13.2 365.77-14.65 361.29-15.73ZM411.29-15.73Q406.81-16.8 404.74-18.88 402.66-20.95 402.66-24.9 402.66-28.85 405.39-31.05 408.11-33.25 412.41-33.25 416.71-33.25 421.16-31.7L421.16-31.7 420.46-29.15Q416.31-30.65 412.84-30.65 409.36-30.65 407.51-29.18 405.66-27.7 405.66-24.9 405.66-22.1 407.16-20.65 408.66-19.2 413.14-18.03 417.61-16.85 419.61-14.93 421.61-13 421.61-8.72 421.61-4.45 418.74-1.98 415.86 0.5 411.31 0.5L411.31 0.5Q407.91 0.5 402.71-0.95L402.71-0.95 403.36-3.5Q408.46-2.1 411.56-2.1 414.66-2.1 416.66-3.83 418.66-5.55 418.66-8.65 418.66-11.75 417.21-13.2 415.76-14.65 411.29-15.73ZM426.96-16.7L426.96-16.7Q426.96-20.6 427.46-23.45L427.46-23.45Q427.96-26.3 429.06-28.6L429.06-28.6Q431.31-33.25 437.46-33.25L437.46-33.25Q444.46-33.2 446.66-26.7L446.66-26.7Q447.96-22.95 447.96-17.88 447.96-12.8 447.46-9.8 446.96-6.8 445.86-4.4L445.86-4.4Q443.56 0.5 437.46 0.5L437.46 0.5Q431.46 0.5 429.11-4.4L429.11-4.4Q426.96-8.85 426.96-16.7ZM445.01-16.3L445.01-16.3Q445.01-19 444.88-20.65 444.76-22.3 444.31-24.3 443.86-26.3 443.08-27.6 442.31-28.9 440.88-29.78 439.46-30.65 437.46-30.65 435.46-30.65 434.03-29.78 432.61-28.9 431.83-27.6 431.06-26.3 430.61-24.3L430.61-24.3Q429.91-21.2 429.91-17.43 429.91-13.65 430.18-11.33 430.46-9 431.21-6.75L431.21-6.75Q432.76-2.1 437.46-2.1L437.46-2.1Q442.26-2.1 443.76-6.8L443.76-6.8Q445.06-10.8 445.01-16.3ZM464.01 0.5Q458.31 0.5 455.51-3.5 452.71-7.5 452.71-16.35 452.71-25.2 455.41-29.23 458.11-33.25 464.06-33.25L464.06-33.25Q467.96-33.25 471.91-32L471.91-32 471.91-25.4 469.16-25.4 469.16-29.85Q466.96-30.65 464.06-30.65L464.06-30.65Q459.56-30.65 457.61-27.3 455.66-23.95 455.66-16.45 455.66-8.95 457.76-5.55 459.86-2.15 464.06-2.15L464.06-2.15Q467.21-2.15 471.56-3.5L471.56-3.5 472.21-0.9Q468.11 0.5 464.01 0.5L464.01 0.5ZM494.45 0L480.5 0 480.5-2.5 486.15-2.5 486.15-30.25 480.5-30.25 480.5-32.75 494.45-32.75 494.45-30.25 488.9-30.25 488.9-2.5 494.45-2.5 494.45 0ZM503.7 0L500.8 0 510.2-32.75 515-32.75 524.05 0 521.1 0 519.05-7.55 505.8-7.55 503.7 0ZM506.5-10.05L518.4-10.05 513-30.25 512.15-30.25 506.5-10.05ZM532.25-2.55L545.9-2.55 545.9 0 529.5 0 529.5-32.75 532.25-32.75 532.25-2.55Z" opacity="1" transform="matrix(1,0,0,1,0,0)" fill="#ffffff" class="undefined-text-0" data-fill-palette-color="primary" id="text-0"></path></svg></g></svg></g><g transform="matrix(1,0,0,1,0,24.298398613971468)"><svg viewBox="0 0 316.416 12.148452314772204" height="12.148452314772204" width="316.416"><g transform="matrix(1,0,0,1,0,0)"><svg width="316.416" viewBox="1.7999999523162842 -35 1221.5499267578125 46.900001525878906" height="12.148452314772204" data-palette-color="#ffffff"><path d="M35.7-23.3L31.1-23.3 31.1-30.15 13.3-30.15 13.3-19.2 21.2-19.2 21.2-23.85 25.2-23.85 25.2-10.75 21.2-10.75 21.2-15.4 13.3-15.4 13.3-4.15 31.1-4.15 31.1-11 35.7-11 35.7 0 1.8 0 1.8-4.15 8.2-4.15 8.2-30.15 1.8-30.15 1.8-34.3 35.7-34.3 35.7-23.3ZM106.41-19.6L98.21-12.1 106.56-3.9 109.71-3.9 109.71 0.05 96.41 0.05 96.41-3.55 100.56-3.55 94.81-9.45 88.76-3.55 93.26-3.55 93.26 0.05 80.96 0.05 80.96-3.9 84.21-3.9 92.56-11.5 84.26-19.6 80.96-19.6 80.96-23.55 94.36-23.55 94.36-19.95 90.16-19.95 95.86-14.15 101.81-19.95 97.51-19.95 97.51-23.55 109.71-23.55 109.71-19.6 106.41-19.6ZM171.86-24.2Q174.81-24.2 177.31-22.65 179.81-21.1 181.31-18.32 182.81-15.55 182.81-12L182.81-12Q182.81-8.35 181.19-5.45 179.56-2.55 176.76-0.93 173.96 0.7 170.56 0.7L170.56 0.7Q166.11 0.7 162.36-2.7L162.36-2.7 162.36 6.95 167.81 6.95 167.81 10.9 152.31 10.9 152.31 6.95 157.56 6.95 157.56-19.6 152.31-19.6 152.31-23.55 162.36-23.55 162.36-19Q164.31-21.4 166.81-22.8 169.31-24.2 171.86-24.2L171.86-24.2ZM169.51-3.5Q171.86-3.5 173.74-4.58 175.61-5.65 176.66-7.6 177.71-9.55 177.71-12.05L177.71-12.05Q177.71-15.6 175.69-17.82 173.66-20.05 170.51-20.05L170.51-20.05Q168.36-20.05 166.26-18.75 164.16-17.45 162.36-15.15L162.36-15.15 162.36-6.4Q165.96-3.5 169.51-3.5L169.51-3.5ZM253.22-4.15L254.22-0.6Q252.57 0.4 250.37 0.4L250.37 0.4Q248.52 0.4 247.24-0.68 245.97-1.75 245.47-3.75L245.47-3.75Q240.47 0.7 235.57 0.7L235.57 0.7Q232.12 0.7 229.72-1.25 227.32-3.2 227.32-6.7L227.32-6.7Q227.32-9.1 228.67-10.88 230.02-12.65 232.29-13.58 234.57-14.5 237.22-14.5L237.22-14.5Q239.47-14.5 241.37-14.08 243.27-13.65 245.27-12.85L245.27-12.85 245.27-15.05Q245.27-17.6 243.57-18.8 241.87-20 239.12-20L239.12-20Q235.22-20 229.72-17.85L229.72-17.85 228.72-21.65Q234.62-24.15 239.72-24.15L239.72-24.15Q244.57-24.15 247.24-21.78 249.92-19.4 249.92-14.85L249.92-14.85 249.92-6.2Q249.92-3.75 251.67-3.75L251.67-3.75Q252.42-3.75 253.22-4.15L253.22-4.15ZM232.17-6.95Q232.17-5.25 233.52-4.33 234.87-3.4 236.82-3.4L236.82-3.4Q238.52-3.4 240.72-4.3 242.92-5.2 245.27-6.95L245.27-6.95 245.27-9.6Q241.87-10.8 238.07-10.9L238.07-10.9Q235.62-10.9 233.89-9.88 232.17-8.85 232.17-6.95L232.17-6.95ZM326.32-3.95L331.02-3.95 331.02 0 317.12 0 317.12-3.95 321.47-3.95 321.47-13.7Q321.47-16.45 320.1-18.03 318.72-19.6 316.17-19.6L316.17-19.6Q311.82-19.6 306.97-14.1L306.97-14.1 306.97-3.95 311.32-3.95 311.32 0 296.77 0 296.77-3.95 302.07-3.95 302.07-19.6 296.77-19.6 296.77-23.55 306.97-23.55 306.97-18Q309.77-21.1 312.35-22.63 314.92-24.15 317.87-24.15L317.87-24.15Q321.92-24.15 324.12-21.55 326.32-18.95 326.32-13.85L326.32-13.85 326.32-3.95ZM402.28-4.05L403.33-0.45Q402.63-0.05 401.63 0.23 400.63 0.5 399.53 0.5L399.53 0.5Q397.68 0.5 396.33-0.48 394.98-1.45 394.48-3.3L394.48-3.3Q392.48-1.5 390.25-0.4 388.03 0.7 385.33 0.7L385.33 0.7Q382.28 0.7 379.65-0.85 377.03-2.4 375.48-5.18 373.93-7.95 373.93-11.45L373.93-11.45Q373.93-15.1 375.55-18.03 377.18-20.95 379.98-22.58 382.78-24.2 386.18-24.2L386.18-24.2Q390.53-24.2 394.18-21L394.18-21 394.18-30.35 388.88-30.35 388.88-34.3 398.98-34.3 398.98-6.05Q398.98-3.65 400.63-3.65L400.63-3.65Q401.73-3.65 402.28-4.05L402.28-4.05ZM379.03-11.5Q379.03-7.9 381.05-5.7 383.08-3.5 386.33-3.5L386.33-3.5Q390.08-3.5 394.18-6.9L394.18-6.9 394.18-17.25Q390.68-20.05 387.28-20.05L387.28-20.05Q384.93-20.05 383.03-18.95 381.13-17.85 380.08-15.9 379.03-13.95 379.03-11.5L379.03-11.5ZM534.69-30.15L522.74-13.4 522.74-4.15 529.34-4.15 529.34 0 510.89 0 510.89-4.15 517.59-4.15 517.59-13.1 505.29-30.15 500.44-30.15 500.44-34.3 516.19-34.3 516.19-30.15 511.29-30.15 520.64-16.65 529.64-30.15 523.99-30.15 523.99-34.3 539.74-34.3 539.74-30.15 534.69-30.15ZM591.75 0.7Q588.3 0.7 585.3-0.85 582.3-2.4 580.52-5.25 578.75-8.1 578.75-11.75L578.75-11.75Q578.75-15.45 580.52-18.28 582.3-21.1 585.3-22.65 588.3-24.2 591.75-24.2L591.75-24.2Q595.15-24.2 598.12-22.65 601.1-21.1 602.9-18.25 604.7-15.4 604.7-11.75L604.7-11.75Q604.7-8.1 602.95-5.25 601.2-2.4 598.22-0.85 595.25 0.7 591.75 0.7L591.75 0.7ZM591.75-3.25Q594-3.25 595.8-4.3 597.6-5.35 598.62-7.28 599.65-9.2 599.65-11.75L599.65-11.75Q599.65-14.3 598.62-16.23 597.6-18.15 595.8-19.2 594-20.25 591.75-20.25L591.75-20.25Q588.3-20.25 586.07-17.93 583.85-15.6 583.85-11.75L583.85-11.75Q583.85-7.9 586.07-5.58 588.3-3.25 591.75-3.25L591.75-3.25ZM678.35-4L679.45-0.45Q677.75 0.5 675.7 0.5L675.7 0.5Q673.35 0.5 671.9-0.9 670.45-2.3 670.25-4.9L670.25-4.9Q667.75-2.15 665.35-0.75 662.95 0.65 660.3 0.65L660.3 0.65Q656.4 0.65 654.28-1.95 652.15-4.55 652.15-9.6L652.15-9.6 652.15-19.6 647.45-19.6 647.45-23.55 657.05-23.55 657.05-9.75Q657.05-6.95 658.23-5.43 659.4-3.9 662-3.9L662-3.9Q665.85-3.9 670.2-8.75L670.2-8.75 670.2-19.6 665.9-19.6 665.9-23.55 675.1-23.55 675.1-6.05Q675.1-3.6 676.8-3.6L676.8-3.6Q677.8-3.6 678.35-4L678.35-4ZM743.81-24.15L745.91-24.15 745.91-14.15 741.56-14.15 741.56-19.3Q739.61-19.3 737.31-17.85 735.01-16.4 732.56-13.75L732.56-13.75 732.56-3.95 737.91-3.95 737.91 0 722.36 0 722.36-3.95 727.66-3.95 727.66-19.6 722.36-19.6 722.36-23.55 732.56-23.55 732.56-17.65Q735.21-20.7 738.08-22.43 740.96-24.15 743.81-24.15L743.81-24.15ZM864.32-30.85Q860.87-30.85 857.97-29.18 855.07-27.5 853.37-24.4 851.67-21.3 851.67-17.15L851.67-17.15Q851.67-13.15 853.34-10.08 855.02-7 857.94-5.3 860.87-3.6 864.52-3.6L864.52-3.6Q870.82-3.6 874.97-6.85L874.97-6.85 874.97-13.5 863.97-13.5 863.97-17.45 879.67-17.45 879.67-4.7Q877.07-2.3 873.12-0.8 869.17 0.7 864.52 0.7L864.52 0.7Q859.17 0.7 855.04-1.58 850.92-3.85 848.62-7.93 846.32-12 846.32-17.15L846.32-17.15Q846.32-22.25 848.62-26.33 850.92-30.4 854.77-32.7 858.62-35 863.17-35L863.17-35Q866.97-35 869.99-33.68 873.02-32.35 875.12-30.1L875.12-30.1 875.12-34.3 879.67-34.3 879.67-23.65 876.42-23.4Q874.57-26.75 871.57-28.8 868.57-30.85 864.32-30.85L864.32-30.85ZM951.82-4.15L952.82-0.6Q951.17 0.4 948.97 0.4L948.97 0.4Q947.12 0.4 945.85-0.68 944.57-1.75 944.07-3.75L944.07-3.75Q939.07 0.7 934.17 0.7L934.17 0.7Q930.72 0.7 928.32-1.25 925.92-3.2 925.92-6.7L925.92-6.7Q925.92-9.1 927.27-10.88 928.62-12.65 930.9-13.58 933.17-14.5 935.82-14.5L935.82-14.5Q938.07-14.5 939.97-14.08 941.87-13.65 943.87-12.85L943.87-12.85 943.87-15.05Q943.87-17.6 942.17-18.8 940.47-20 937.72-20L937.72-20Q933.82-20 928.32-17.85L928.32-17.85 927.32-21.65Q933.22-24.15 938.32-24.15L938.32-24.15Q943.17-24.15 945.85-21.78 948.52-19.4 948.52-14.85L948.52-14.85 948.52-6.2Q948.52-3.75 950.27-3.75L950.27-3.75Q951.02-3.75 951.82-4.15L951.82-4.15ZM930.77-6.95Q930.77-5.25 932.12-4.33 933.47-3.4 935.42-3.4L935.42-3.4Q937.12-3.4 939.32-4.3 941.52-5.2 943.87-6.95L943.87-6.95 943.87-9.6Q940.47-10.8 936.67-10.9L936.67-10.9Q934.22-10.9 932.5-9.88 930.77-8.85 930.77-6.95L930.77-6.95ZM1004.83-3.95L1010.28-3.95 1010.28 0 994.68 0 994.68-3.95 999.93-3.95 999.93-30.35 994.68-30.35 994.68-34.3 1004.83-34.3 1004.83-3.95ZM1079.59-4.15L1080.59-0.6Q1078.94 0.4 1076.74 0.4L1076.74 0.4Q1074.89 0.4 1073.61-0.68 1072.34-1.75 1071.84-3.75L1071.84-3.75Q1066.84 0.7 1061.94 0.7L1061.94 0.7Q1058.49 0.7 1056.09-1.25 1053.69-3.2 1053.69-6.7L1053.69-6.7Q1053.69-9.1 1055.04-10.88 1056.39-12.65 1058.66-13.58 1060.94-14.5 1063.59-14.5L1063.59-14.5Q1065.84-14.5 1067.74-14.08 1069.64-13.65 1071.64-12.85L1071.64-12.85 1071.64-15.05Q1071.64-17.6 1069.94-18.8 1068.24-20 1065.49-20L1065.49-20Q1061.59-20 1056.09-17.85L1056.09-17.85 1055.09-21.65Q1060.99-24.15 1066.09-24.15L1066.09-24.15Q1070.94-24.15 1073.61-21.78 1076.29-19.4 1076.29-14.85L1076.29-14.85 1076.29-6.2Q1076.29-3.75 1078.04-3.75L1078.04-3.75Q1078.79-3.75 1079.59-4.15L1079.59-4.15ZM1058.54-6.95Q1058.54-5.25 1059.89-4.33 1061.24-3.4 1063.19-3.4L1063.19-3.4Q1064.89-3.4 1067.09-4.3 1069.29-5.2 1071.64-6.95L1071.64-6.95 1071.64-9.6Q1068.24-10.8 1064.44-10.9L1064.44-10.9Q1061.99-10.9 1060.26-9.88 1058.54-8.85 1058.54-6.95L1058.54-6.95ZM1147.49-19.6L1139.29-12.1 1147.64-3.9 1150.79-3.9 1150.79 0.05 1137.49 0.05 1137.49-3.55 1141.64-3.55 1135.89-9.45 1129.84-3.55 1134.34-3.55 1134.34 0.05 1122.04 0.05 1122.04-3.9 1125.29-3.9 1133.64-11.5 1125.34-19.6 1122.04-19.6 1122.04-23.55 1135.44-23.55 1135.44-19.95 1131.24-19.95 1136.94-14.15 1142.89-19.95 1138.59-19.95 1138.59-23.55 1150.79-23.55 1150.79-19.6 1147.49-19.6ZM1223.35-23.55L1223.35-19.6 1219.65-19.6 1209.75 2.6Q1207.65 7.25 1205.02 9.58 1202.4 11.9 1198.9 11.9L1198.9 11.9Q1196.95 11.9 1195.37 11.28 1193.8 10.65 1191.95 9.45L1191.95 9.45 1193.95 5.7Q1196.5 7.55 1198.9 7.55L1198.9 7.55Q1201.05 7.55 1202.75 6.18 1204.45 4.8 1205.75 1.8L1205.75 1.8 1206.1 1 1196-19.6 1192.1-19.6 1192.1-23.55 1205.3-23.55 1205.3-19.95 1201.25-19.95 1208.35-4.15 1215.3-19.95 1211.45-19.95 1211.45-23.55 1223.35-23.55Z" opacity="1" transform="matrix(1,0,0,1,0,0)" fill="#ffffff" class="undefined-text-1" data-fill-palette-color="secondary" id="text-1"></path></svg></g></svg></g></svg></g></svg></g></svg></g></svg></g></svg></g></svg></g></svg><rect width="395.52" height="247.2" fill="none" stroke="none" visibility="hidden"></rect></g></svg></g></svg>