<svg xmlns="http://www.w3.org/2000/svg" version="1.1" xmlns:xlink="http://www.w3.org/1999/xlink" xmlns:svgjs="http://svgjs.dev/svgjs" width="2000" height="671" viewBox="0 0 2000 671"><g transform="matrix(1,0,0,1,-1.2121212121212466,-0.45110911176590207)"><svg viewBox="0 0 396 133" data-background-color="#28353b" preserveAspectRatio="xMidYMid meet" height="671" width="2000" xmlns="http://www.w3.org/2000/svg" xmlns:xlink="http://www.w3.org/1999/xlink"><defs></defs><g id="tight-bounds" transform="matrix(1,0,0,1,0.2400000000000091,0.08941506984331227)"><svg viewBox="0 0 395.52 132.82116986031338" height="132.82116986031338" width="395.52"><g><svg viewBox="0 0 636.1201778502653 213.61808807095179" height="132.82116986031338" width="395.52"><g><rect width="4.886767848384699" height="213.61808807095179" x="222.9208240113448" y="0" fill="#ffffff" opacity="1" stroke-width="0" stroke="transparent" fill-opacity="1" class="rect-o-0" data-fill-palette-color="primary" rx="1%" id="o-0" data-palette-color="#ffffff"></rect></g><g transform="matrix(1,0,0,1,240.60017785026534,0.531388278783453)"><svg viewBox="0 0 395.52 212.55531151338488" height="212.55531151338488" width="395.52"><g><svg viewBox="0 0 395.52 212.55531151338488" height="212.55531151338488" width="395.52"><g><svg viewBox="0 0 395.52 175.88119330403063" height="175.88119330403063" width="395.52"><g transform="matrix(1,0,0,1,0,0)"><svg width="395.52" viewBox="1.450000286102295 -36.230003356933594 270.23004150390625 115.88001251220703" height="175.88119330403063" data-palette-color="#ffffff"><svg></svg><svg></svg><svg></svg><g class="undefined-text-0" data-fill-palette-color="primary" id="text-0"><path d="M23.88-32.52l-1.18 2.29c-0.147 0.253-0.303 0.443-0.47 0.57-0.167 0.12-0.383 0.18-0.65 0.18v0c-0.287 0-0.617-0.14-0.99-0.42-0.373-0.287-0.85-0.6-1.43-0.94-0.573-0.34-1.263-0.653-2.07-0.94-0.807-0.28-1.787-0.42-2.94-0.42v0c-1.08 0-2.037 0.147-2.87 0.44-0.833 0.287-1.53 0.68-2.09 1.18-0.56 0.5-0.98 1.09-1.26 1.77-0.287 0.673-0.43 1.4-0.43 2.18v0c0 1 0.247 1.83 0.74 2.49 0.487 0.66 1.137 1.223 1.95 1.69 0.807 0.467 1.723 0.87 2.75 1.21 1.027 0.34 2.077 0.693 3.15 1.06 1.073 0.367 2.123 0.78 3.15 1.24 1.027 0.46 1.943 1.04 2.75 1.74 0.807 0.7 1.457 1.557 1.95 2.57 0.493 1.02 0.74 2.27 0.74 3.75v0c0 1.567-0.267 3.04-0.8 4.42-0.533 1.373-1.313 2.567-2.34 3.58-1.027 1.02-2.287 1.82-3.78 2.4-1.487 0.587-3.18 0.88-5.08 0.88v0c-2.32 0-4.433-0.42-6.34-1.26-1.907-0.847-3.537-1.987-4.89-3.42v0l1.4-2.3c0.133-0.18 0.297-0.333 0.49-0.46 0.193-0.127 0.407-0.19 0.64-0.19v0c0.347 0 0.747 0.19 1.2 0.57 0.447 0.373 1.007 0.783 1.68 1.23 0.68 0.453 1.497 0.867 2.45 1.24 0.96 0.373 2.133 0.56 3.52 0.56v0c1.147 0 2.17-0.157 3.07-0.47 0.9-0.32 1.663-0.767 2.29-1.34 0.627-0.573 1.107-1.26 1.44-2.06 0.333-0.8 0.5-1.693 0.5-2.68v0c0-1.08-0.247-1.967-0.74-2.66-0.493-0.693-1.14-1.273-1.94-1.74-0.8-0.467-1.713-0.86-2.74-1.18-1.02-0.327-2.07-0.66-3.15-1-1.073-0.347-2.123-0.743-3.15-1.19-1.02-0.453-1.93-1.037-2.73-1.75-0.8-0.72-1.447-1.617-1.94-2.69-0.493-1.073-0.74-2.403-0.74-3.99v0c0-1.267 0.247-2.49 0.74-3.67 0.493-1.187 1.207-2.237 2.14-3.15 0.933-0.92 2.087-1.653 3.46-2.2 1.373-0.553 2.953-0.83 4.74-0.83v0c1.993 0 3.817 0.32 5.47 0.96 1.653 0.627 3.097 1.543 4.33 2.75zM41.92-13.4h-5.75v13.4h-4.82v-35.83h10.57c2.273 0 4.247 0.263 5.92 0.79 1.673 0.527 3.06 1.273 4.16 2.24 1.1 0.967 1.92 2.133 2.46 3.5 0.547 1.367 0.82 2.89 0.82 4.57v0c0 1.667-0.293 3.193-0.88 4.58-0.58 1.387-1.433 2.58-2.56 3.58-1.127 0.993-2.523 1.77-4.19 2.33-1.667 0.56-3.577 0.84-5.73 0.84zM36.17-32v14.75h5.75c1.387 0 2.61-0.183 3.67-0.55 1.053-0.367 1.94-0.88 2.66-1.54 0.72-0.66 1.263-1.447 1.63-2.36 0.36-0.92 0.54-1.93 0.54-3.03v0c0-2.28-0.703-4.063-2.11-5.35-1.407-1.28-3.537-1.92-6.39-1.92v0zM73.1-35.83l14.32 35.83h-3.75c-0.433 0-0.78-0.11-1.04-0.33-0.273-0.213-0.477-0.487-0.61-0.82v0l-3.35-8.65h-16.07l-3.35 8.65c-0.12 0.3-0.32 0.567-0.6 0.8-0.287 0.233-0.637 0.35-1.05 0.35v0h-3.75l14.32-35.83zM69.57-27.85l-5.62 14.55h13.37l-5.62-14.58c-0.367-0.9-0.723-2.023-1.07-3.37v0c-0.187 0.68-0.367 1.31-0.54 1.89-0.18 0.573-0.353 1.077-0.52 1.51zM116.15-7.4v0c0.267 0 0.51 0.107 0.73 0.32v0l1.9 2.08c-1.467 1.7-3.247 3.023-5.34 3.97-2.093 0.953-4.613 1.43-7.56 1.43v0c-2.587 0-4.93-0.447-7.03-1.34-2.1-0.887-3.893-2.137-5.38-3.75-1.48-1.607-2.63-3.537-3.45-5.79-0.813-2.247-1.22-4.72-1.22-7.42v0c0-2.7 0.437-5.177 1.31-7.43 0.873-2.247 2.103-4.18 3.69-5.8 1.58-1.613 3.477-2.867 5.69-3.76 2.207-0.893 4.643-1.34 7.31-1.34v0c2.633 0 4.903 0.41 6.81 1.23 1.907 0.82 3.603 1.927 5.09 3.32v0l-1.57 2.23c-0.12 0.167-0.257 0.303-0.41 0.41-0.147 0.107-0.36 0.16-0.64 0.16v0c-0.22 0-0.45-0.077-0.69-0.23-0.24-0.16-0.527-0.357-0.86-0.59-0.333-0.233-0.727-0.483-1.18-0.75-0.453-0.267-0.987-0.517-1.6-0.75-0.613-0.233-1.33-0.43-2.15-0.59-0.813-0.153-1.753-0.23-2.82-0.23v0c-1.92 0-3.677 0.327-5.27 0.98-1.587 0.66-2.957 1.597-4.11 2.81-1.153 1.22-2.05 2.703-2.69 4.45-0.64 1.753-0.96 3.713-0.96 5.88v0c0 2.233 0.32 4.223 0.96 5.97 0.64 1.753 1.517 3.233 2.63 4.44 1.107 1.207 2.42 2.127 3.94 2.76 1.513 0.633 3.143 0.95 4.89 0.95v0c1.073 0 2.033-0.06 2.88-0.18 0.853-0.127 1.64-0.323 2.36-0.59 0.727-0.267 1.403-0.603 2.03-1.01 0.627-0.413 1.257-0.903 1.89-1.47v0c0.28-0.247 0.553-0.37 0.82-0.37zM125.15-35.83h22.07v3.95h-17.19v11.9h13.92v3.8h-13.92v12.23h17.19v3.95h-22.07z" data-fill-palette-color="primary" fill="#ffffff" opacity="1"></path><path d="M4.35 3.8h22.08v3.95h-17.21v11.9h13.93v3.8h-13.93v12.23h17.21v3.95h-22.08zM35.9 3.8v0c0.433 0 0.753 0.057 0.96 0.17 0.207 0.107 0.447 0.327 0.72 0.66v0l20.75 27c-0.053-0.433-0.087-0.853-0.1-1.26-0.02-0.413-0.03-0.81-0.03-1.19v0-25.38h4.25v35.83h-2.45c-0.387 0-0.707-0.067-0.96-0.2-0.26-0.133-0.513-0.36-0.76-0.68v0l-20.73-26.97c0.033 0.413 0.06 0.82 0.08 1.22 0.013 0.4 0.02 0.767 0.02 1.1v0 25.53h-4.25v-35.83zM87.18 36.1v0c0.967 0 1.853-0.043 2.66-0.13 0.807-0.093 1.57-0.233 2.29-0.42 0.713-0.18 1.387-0.4 2.02-0.66 0.633-0.26 1.267-0.557 1.9-0.89v0-7.9h-5.55c-0.313 0-0.567-0.09-0.76-0.27-0.193-0.187-0.29-0.413-0.29-0.68v0-2.75h11v13.75c-0.9 0.653-1.837 1.22-2.81 1.7-0.973 0.487-2.017 0.893-3.13 1.22-1.107 0.32-2.293 0.56-3.56 0.72-1.267 0.16-2.64 0.24-4.12 0.24v0c-2.6 0-4.983-0.447-7.15-1.34-2.167-0.887-4.033-2.137-5.6-3.75-1.567-1.607-2.79-3.537-3.67-5.79-0.873-2.247-1.31-4.72-1.31-7.42v0c0-2.733 0.43-5.227 1.29-7.48 0.86-2.247 2.083-4.173 3.67-5.78 1.593-1.613 3.52-2.86 5.78-3.74 2.26-0.887 4.79-1.33 7.59-1.33v0c1.413 0 2.73 0.107 3.95 0.32 1.213 0.207 2.34 0.507 3.38 0.9 1.047 0.387 2.01 0.86 2.89 1.42 0.887 0.56 1.713 1.19 2.48 1.89v0l-1.38 2.2c-0.28 0.447-0.647 0.67-1.1 0.67v0c-0.267 0-0.557-0.09-0.87-0.27v0c-0.42-0.233-0.887-0.517-1.4-0.85-0.52-0.333-1.15-0.653-1.89-0.96-0.74-0.313-1.617-0.577-2.63-0.79-1.007-0.213-2.2-0.32-3.58-0.32v0c-2.02 0-3.847 0.327-5.48 0.98-1.633 0.66-3.023 1.603-4.17 2.83-1.153 1.22-2.037 2.703-2.65 4.45-0.62 1.74-0.93 3.693-0.93 5.86v0c0 2.267 0.32 4.287 0.96 6.06 0.647 1.773 1.553 3.277 2.72 4.51 1.167 1.233 2.55 2.177 4.15 2.83 1.6 0.647 3.367 0.97 5.3 0.97zM113.65 3.8v35.83h-4.85v-35.83zM125.75 3.8v0c0.433 0 0.753 0.057 0.96 0.17 0.213 0.107 0.453 0.327 0.72 0.66v0l20.75 27c-0.053-0.433-0.087-0.853-0.1-1.26-0.02-0.413-0.03-0.81-0.03-1.19v0-25.38h4.25v35.83h-2.45c-0.38 0-0.7-0.067-0.96-0.2-0.26-0.133-0.513-0.36-0.76-0.68v0l-20.73-26.97c0.033 0.413 0.06 0.82 0.08 1.22 0.013 0.4 0.02 0.767 0.02 1.1v0 25.53h-4.25v-35.83zM161.05 3.8h22.08v3.95h-17.2v11.9h13.92v3.8h-13.92v12.23h17.2v3.95h-22.08zM190.1 3.8h22.08v3.95h-17.2v11.9h13.92v3.8h-13.92v12.23h17.2v3.95h-22.08zM228.15 24.68h-3.67v14.95h-4.83v-35.83h10.13c2.267 0 4.223 0.23 5.87 0.69 1.653 0.46 3.017 1.123 4.09 1.99 1.073 0.867 1.87 1.913 2.39 3.14 0.513 1.22 0.77 2.59 0.77 4.11v0c0 1.267-0.2 2.45-0.6 3.55-0.4 1.1-0.98 2.087-1.74 2.96-0.753 0.88-1.677 1.627-2.77 2.24-1.093 0.613-2.33 1.08-3.71 1.4v0c0.6 0.347 1.133 0.853 1.6 1.52v0l10.45 14.23h-4.3c-0.887 0-1.537-0.343-1.95-1.03v0l-9.3-12.8c-0.287-0.4-0.597-0.687-0.93-0.86-0.333-0.173-0.833-0.26-1.5-0.26zM224.48 7.63v13.52h5.07c1.42 0 2.667-0.17 3.74-0.51 1.073-0.34 1.973-0.823 2.7-1.45 0.727-0.627 1.273-1.373 1.64-2.24 0.367-0.867 0.55-1.823 0.55-2.87v0c0-2.133-0.707-3.743-2.12-4.83-1.407-1.08-3.5-1.62-6.28-1.62v0zM270.88 7.11l-1.18 2.29c-0.147 0.253-0.303 0.443-0.47 0.57-0.167 0.12-0.383 0.18-0.65 0.18v0c-0.287 0-0.617-0.14-0.99-0.42-0.373-0.287-0.85-0.6-1.43-0.94-0.573-0.34-1.263-0.653-2.07-0.94-0.807-0.28-1.787-0.42-2.94-0.42v0c-1.08 0-2.037 0.147-2.87 0.44-0.833 0.287-1.53 0.68-2.09 1.18-0.56 0.5-0.98 1.09-1.26 1.77-0.287 0.673-0.43 1.4-0.43 2.18v0c0 1 0.247 1.83 0.74 2.49 0.493 0.66 1.143 1.223 1.95 1.69 0.807 0.467 1.723 0.87 2.75 1.21 1.027 0.34 2.077 0.693 3.15 1.06 1.073 0.367 2.123 0.78 3.15 1.24 1.027 0.46 1.943 1.04 2.75 1.74 0.807 0.7 1.457 1.557 1.95 2.57 0.493 1.02 0.74 2.27 0.74 3.75v0c0 1.567-0.267 3.04-0.8 4.42-0.533 1.373-1.313 2.567-2.34 3.58-1.027 1.02-2.287 1.82-3.78 2.4-1.487 0.587-3.18 0.88-5.08 0.88v0c-2.32 0-4.433-0.42-6.34-1.26-1.907-0.847-3.537-1.987-4.89-3.42v0l1.4-2.3c0.133-0.18 0.297-0.333 0.49-0.46 0.193-0.127 0.407-0.19 0.64-0.19v0c0.347 0 0.747 0.19 1.2 0.57 0.447 0.373 1.007 0.783 1.68 1.23 0.68 0.453 1.497 0.867 2.45 1.24 0.96 0.373 2.133 0.56 3.52 0.56v0c1.147 0 2.17-0.157 3.07-0.47 0.9-0.32 1.663-0.767 2.29-1.34 0.627-0.573 1.107-1.26 1.44-2.06 0.333-0.8 0.5-1.693 0.5-2.68v0c0-1.08-0.247-1.967-0.74-2.66-0.493-0.693-1.14-1.273-1.94-1.74-0.8-0.467-1.713-0.86-2.74-1.18-1.02-0.327-2.07-0.66-3.15-1-1.073-0.347-2.123-0.743-3.15-1.19-1.02-0.453-1.93-1.037-2.73-1.75-0.8-0.72-1.447-1.617-1.94-2.69-0.493-1.073-0.74-2.403-0.74-3.99v0c0-1.267 0.247-2.49 0.74-3.67 0.493-1.187 1.207-2.237 2.14-3.15 0.933-0.92 2.087-1.653 3.46-2.2 1.373-0.553 2.953-0.83 4.74-0.83v0c2 0 3.823 0.32 5.47 0.96 1.653 0.627 3.097 1.543 4.33 2.75z" data-fill-palette-color="primary" fill="#ffffff" opacity="1"></path><path d="M23.88 46.73l-1.18 2.29c-0.147 0.253-0.303 0.443-0.47 0.57-0.167 0.12-0.383 0.18-0.65 0.18v0c-0.287 0-0.617-0.14-0.99-0.42-0.373-0.287-0.85-0.6-1.43-0.94-0.573-0.34-1.263-0.653-2.07-0.94-0.807-0.28-1.787-0.42-2.94-0.42v0c-1.08 0-2.037 0.147-2.87 0.44-0.833 0.287-1.53 0.68-2.09 1.18-0.56 0.5-0.98 1.09-1.26 1.77-0.287 0.673-0.43 1.4-0.43 2.18v0c0 1 0.247 1.83 0.74 2.49 0.487 0.66 1.137 1.223 1.95 1.69 0.807 0.467 1.723 0.87 2.75 1.21 1.027 0.34 2.077 0.693 3.15 1.06 1.073 0.367 2.123 0.78 3.15 1.24 1.027 0.46 1.943 1.04 2.75 1.74 0.807 0.7 1.457 1.557 1.95 2.57 0.493 1.02 0.74 2.27 0.74 3.75v0c0 1.567-0.267 3.04-0.8 4.42-0.533 1.373-1.313 2.567-2.34 3.58-1.027 1.02-2.287 1.82-3.78 2.4-1.487 0.587-3.18 0.88-5.08 0.88v0c-2.32 0-4.433-0.42-6.34-1.26-1.907-0.847-3.537-1.987-4.89-3.42v0l1.4-2.3c0.133-0.18 0.297-0.333 0.49-0.46 0.193-0.127 0.407-0.19 0.64-0.19v0c0.347 0 0.747 0.19 1.2 0.57 0.447 0.373 1.007 0.783 1.68 1.23 0.68 0.453 1.497 0.867 2.45 1.24 0.96 0.373 2.133 0.56 3.52 0.56v0c1.147 0 2.17-0.157 3.07-0.47 0.9-0.32 1.663-0.767 2.29-1.34 0.627-0.573 1.107-1.26 1.44-2.06 0.333-0.8 0.5-1.693 0.5-2.68v0c0-1.08-0.247-1.967-0.74-2.66-0.493-0.693-1.14-1.273-1.94-1.74-0.8-0.467-1.713-0.86-2.74-1.18-1.02-0.327-2.07-0.66-3.15-1-1.073-0.347-2.123-0.743-3.15-1.19-1.02-0.453-1.93-1.037-2.73-1.75-0.8-0.72-1.447-1.617-1.94-2.69-0.493-1.073-0.74-2.403-0.74-3.99v0c0-1.267 0.247-2.49 0.74-3.67 0.493-1.187 1.207-2.237 2.14-3.15 0.933-0.92 2.087-1.653 3.46-2.2 1.373-0.553 2.953-0.83 4.74-0.83v0c1.993 0 3.817 0.32 5.47 0.96 1.653 0.627 3.097 1.543 4.33 2.75zM64.13 61.35v0c0 2.68-0.427 5.143-1.28 7.39-0.847 2.24-2.047 4.167-3.6 5.78-1.553 1.62-3.417 2.877-5.59 3.77-2.173 0.893-4.577 1.34-7.21 1.34v0c-2.633 0-5.033-0.447-7.2-1.34-2.167-0.893-4.027-2.15-5.58-3.77-1.547-1.613-2.747-3.54-3.6-5.78-0.847-2.247-1.27-4.71-1.27-7.39v0c0-2.687 0.423-5.15 1.27-7.39 0.853-2.24 2.053-4.173 3.6-5.8 1.553-1.62 3.413-2.883 5.58-3.79 2.167-0.9 4.567-1.35 7.2-1.35v0c2.633 0 5.037 0.45 7.21 1.35 2.173 0.907 4.037 2.17 5.59 3.79 1.553 1.627 2.753 3.56 3.6 5.8 0.853 2.24 1.28 4.703 1.28 7.39zM59.15 61.35v0c0-2.2-0.3-4.177-0.9-5.93-0.6-1.747-1.45-3.223-2.55-4.43-1.1-1.213-2.433-2.143-4-2.79-1.567-0.647-3.317-0.97-5.25-0.97v0c-1.913 0-3.653 0.323-5.22 0.97-1.567 0.647-2.907 1.577-4.02 2.79-1.107 1.207-1.96 2.683-2.56 4.43-0.6 1.753-0.9 3.73-0.9 5.93v0c0 2.2 0.3 4.17 0.9 5.91 0.6 1.74 1.453 3.217 2.56 4.43 1.113 1.207 2.453 2.13 4.02 2.77 1.567 0.64 3.307 0.96 5.22 0.96v0c1.933 0 3.683-0.32 5.25-0.96 1.567-0.64 2.9-1.563 4-2.77 1.1-1.213 1.95-2.69 2.55-4.43 0.6-1.74 0.9-3.71 0.9-5.91zM96 71.85v0c0.267 0 0.51 0.107 0.73 0.32v0l1.9 2.08c-1.467 1.7-3.247 3.023-5.34 3.97-2.093 0.953-4.613 1.43-7.56 1.43v0c-2.587 0-4.93-0.447-7.03-1.34-2.1-0.887-3.89-2.137-5.37-3.75-1.487-1.607-2.637-3.537-3.45-5.79-0.82-2.247-1.23-4.72-1.23-7.42v0c0-2.7 0.437-5.177 1.31-7.43 0.88-2.247 2.11-4.18 3.69-5.8 1.587-1.613 3.483-2.867 5.69-3.76 2.207-0.893 4.643-1.34 7.31-1.34v0c2.633 0 4.903 0.41 6.81 1.23 1.913 0.82 3.61 1.927 5.09 3.32v0l-1.57 2.23c-0.12 0.167-0.253 0.303-0.4 0.41-0.153 0.107-0.37 0.16-0.65 0.16v0c-0.22 0-0.45-0.077-0.69-0.23-0.24-0.16-0.527-0.357-0.86-0.59-0.333-0.233-0.727-0.483-1.18-0.75-0.447-0.267-0.98-0.517-1.6-0.75-0.613-0.233-1.33-0.43-2.15-0.59-0.813-0.153-1.753-0.23-2.82-0.23v0c-1.92 0-3.677 0.327-5.27 0.98-1.587 0.66-2.957 1.597-4.11 2.81-1.147 1.22-2.043 2.703-2.69 4.45-0.64 1.753-0.96 3.713-0.96 5.88v0c0 2.233 0.32 4.223 0.96 5.97 0.647 1.753 1.523 3.233 2.63 4.44 1.107 1.207 2.42 2.127 3.94 2.76 1.513 0.633 3.147 0.95 4.9 0.95v0c1.067 0 2.023-0.06 2.87-0.18 0.853-0.127 1.64-0.323 2.36-0.59 0.727-0.267 1.403-0.603 2.03-1.01 0.627-0.413 1.257-0.903 1.89-1.47v0c0.28-0.247 0.553-0.37 0.82-0.37zM110.75 43.42v35.83h-4.85v-35.83zM135.5 43.42l14.32 35.83h-3.75c-0.427 0-0.773-0.11-1.04-0.33-0.267-0.213-0.467-0.487-0.6-0.82v0l-3.36-8.65h-16.07l-3.35 8.65c-0.12 0.3-0.32 0.567-0.6 0.8-0.28 0.233-0.63 0.35-1.05 0.35v0h-3.75l14.32-35.83zM131.97 51.4l-5.62 14.55h13.37l-5.62-14.58c-0.367-0.9-0.723-2.023-1.07-3.37v0c-0.187 0.68-0.367 1.31-0.54 1.89-0.18 0.573-0.353 1.077-0.52 1.51zM159.2 43.42v31.75h15.5v4.08h-20.35v-35.83z" data-fill-palette-color="primary" fill="#ffffff" opacity="1"></path></g></svg></g></svg></g><g transform="matrix(1,0,0,1,0,188.6737792945665)"><svg viewBox="0 0 232.209792 23.88153221881838" height="23.88153221881838" width="232.209792"><g transform="matrix(1,0,0,1,0,0)"><svg width="232.209792" viewBox="4.550000190734863 -35.650001525878906 434.1100158691406 44.650001525878906" height="23.88153221881838" data-palette-color="#ffffff"><path d="M26.3 0L4.55 0 4.55-35.25 26.3-35.25 26.3-32.6 7.6-32.6 7.6-19.25 25.3-19.25 25.3-16.55 7.6-16.55 7.6-2.65 26.3-2.65 26.3 0ZM53.05-24.25L43.6-12.5 53.6 0 49.85 0 41.75-10.15 33.7 0 29.9 0 39.9-12.5 30.45-24.25 34.25-24.25 41.75-14.8 49.25-24.25 53.05-24.25ZM69.95-24.85Q73.15-24.85 75.59-23.28 78.05-21.7 79.4-18.82 80.75-15.95 80.75-12.15L80.75-12.15Q80.75-8.4 79.4-5.58 78.05-2.75 75.59-1.2 73.15 0.35 69.95 0.35L69.95 0.35Q67 0.35 64.84-0.93 62.7-2.2 61.59-4.65L61.59-4.65 61.59 9 58.55 9 58.55-24.25 61.59-24.25 61.59-19.85Q62.7-22.3 64.84-23.58 67-24.85 69.95-24.85L69.95-24.85ZM69.5-2.35Q73.34-2.35 75.47-4.93 77.59-7.5 77.59-12.15L77.59-12.15Q77.59-16.9 75.47-19.55 73.34-22.2 69.55-22.2L69.55-22.2Q65.75-22.2 63.67-19.6 61.59-17 61.59-12.25L61.59-12.25Q61.59-7.5 63.65-4.93 65.7-2.35 69.5-2.35L69.5-2.35ZM96.79-24.85Q101.19-24.85 103.37-22.55 105.54-20.25 105.54-15.6L105.54-15.6 105.54 0 102.54 0 102.54-4.35Q101.49-2.1 99.49-0.88 97.49 0.35 94.89 0.35L94.89 0.35Q92.54 0.35 90.59-0.6 88.64-1.55 87.52-3.25 86.39-4.95 86.39-7L86.39-7Q86.39-9.7 87.79-11.2 89.19-12.7 92.44-13.35 95.69-14 101.49-14L101.49-14 102.54-14 102.54-15.85Q102.54-19.15 101.19-20.68 99.84-22.2 96.94-22.2L96.94-22.2Q94.74-22.2 92.72-21.58 90.69-20.95 88.54-19.55L88.54-19.55 87.39-21.9Q89.24-23.25 91.79-24.05 94.34-24.85 96.79-24.85L96.79-24.85ZM95.14-2.3Q98.39-2.3 100.47-4.5 102.54-6.7 102.54-10.1L102.54-10.1 102.54-11.75 101.59-11.75Q96.79-11.75 94.24-11.35 91.69-10.95 90.64-9.98 89.59-9 89.59-7.15L89.59-7.15Q89.59-5.05 91.19-3.68 92.79-2.3 95.14-2.3L95.14-2.3ZM124.84-24.85Q133.59-24.85 133.59-15.45L133.59-15.45 133.59 0 130.54 0 130.54-15.25Q130.54-18.85 129.09-20.5 127.64-22.15 124.49-22.15L124.49-22.15Q120.89-22.15 118.72-19.95 116.54-17.75 116.54-14.05L116.54-14.05 116.54 0 113.49 0 113.49-24.25 116.49-24.25 116.49-20.1Q117.64-22.4 119.82-23.63 121.99-24.85 124.84-24.85L124.84-24.85ZM159.14-35.25L162.19-35.25 162.19 0 159.14 0 159.14-4.65Q158.04-2.2 155.89-0.93 153.74 0.35 150.79 0.35L150.79 0.35Q147.59 0.35 145.14-1.23 142.69-2.8 141.34-5.68 139.99-8.55 139.99-12.35L139.99-12.35Q139.99-16.1 141.34-18.93 142.69-21.75 145.14-23.3 147.59-24.85 150.79-24.85L150.79-24.85Q153.74-24.85 155.89-23.58 158.04-22.3 159.14-19.85L159.14-19.85 159.14-35.25ZM151.19-2.35Q154.99-2.35 157.06-4.93 159.14-7.5 159.14-12.25L159.14-12.25Q159.14-17 157.09-19.6 155.04-22.2 151.24-22.2L151.24-22.2Q147.39-22.2 145.29-19.63 143.19-17.05 143.19-12.35L143.19-12.35Q143.19-7.6 145.29-4.98 147.39-2.35 151.19-2.35L151.19-2.35ZM205.23-35.25L208.68-35.25 195.03-16.85 195.03 0 191.98 0 191.98-16.95 178.38-35.25 181.93-35.25 193.58-19.45 205.23-35.25ZM218.23 0.35Q214.88 0.35 212.36-1.2 209.83-2.75 208.43-5.6 207.03-8.45 207.03-12.25L207.03-12.25Q207.03-16.05 208.43-18.9 209.83-21.75 212.36-23.3 214.88-24.85 218.23-24.85L218.23-24.85Q221.53-24.85 224.08-23.3 226.63-21.75 228.01-18.9 229.38-16.05 229.38-12.25L229.38-12.25Q229.38-8.45 228.01-5.6 226.63-2.75 224.08-1.2 221.53 0.35 218.23 0.35L218.23 0.35ZM218.18-2.35Q222.03-2.35 224.13-4.9 226.23-7.45 226.23-12.25L226.23-12.25Q226.23-16.95 224.11-19.58 221.98-22.2 218.23-22.2L218.23-22.2Q214.43-22.2 212.33-19.58 210.23-16.95 210.23-12.25L210.23-12.25Q210.23-7.45 212.28-4.9 214.33-2.35 218.18-2.35L218.18-2.35ZM252.43-24.25L255.48-24.25 255.48 0 252.48 0 252.48-4.35Q251.33-2.05 249.2-0.85 247.08 0.35 244.38 0.35L244.38 0.35Q240.08 0.35 237.9-2.02 235.73-4.4 235.73-9.05L235.73-9.05 235.73-24.25 238.78-24.25 238.78-9.25Q238.78-5.7 240.2-4.03 241.63-2.35 244.68-2.35L244.68-2.35Q248.18-2.35 250.3-4.58 252.43-6.8 252.43-10.5L252.43-10.5 252.43-24.25ZM275.93-24.85L276.18-22.2 274.03-22Q270.08-21.6 268.3-19.45 266.53-17.3 266.53-14.2L266.53-14.2 266.53 0 263.48 0 263.48-24.25 266.48-24.25 266.48-20Q267.58-22.25 269.6-23.38 271.63-24.5 274.63-24.75L274.63-24.75 275.93-24.85ZM308.72-18.05L320.82-18.05 320.82-2Q318.87-0.95 315.52-0.28 312.17 0.4 308.77 0.4L308.77 0.4Q303.62 0.4 299.9-1.75 296.17-3.9 294.2-7.95 292.22-12 292.22-17.65L292.22-17.65Q292.22-23.25 294.17-27.33 296.12-31.4 299.8-33.52 303.47-35.65 308.47-35.65L308.47-35.65Q315.87-35.65 320.47-31.05L320.47-31.05 319.17-28.6Q316.67-30.9 314.12-31.9 311.57-32.9 308.42-32.9L308.42-32.9Q302.17-32.9 298.8-28.93 295.42-24.95 295.42-17.65L295.42-17.65Q295.42-10.2 298.85-6.25 302.27-2.3 308.77-2.3L308.77-2.3Q311.27-2.3 313.67-2.73 316.07-3.15 318.02-3.9L318.02-3.9 318.02-15.45 308.72-15.45 308.72-18.05ZM338.57-24.85Q342.97-24.85 345.14-22.55 347.32-20.25 347.32-15.6L347.32-15.6 347.32 0 344.32 0 344.32-4.35Q343.27-2.1 341.27-0.88 339.27 0.35 336.67 0.35L336.67 0.35Q334.32 0.35 332.37-0.6 330.42-1.55 329.29-3.25 328.17-4.95 328.17-7L328.17-7Q328.17-9.7 329.57-11.2 330.97-12.7 334.22-13.35 337.47-14 343.27-14L343.27-14 344.32-14 344.32-15.85Q344.32-19.15 342.97-20.68 341.62-22.2 338.72-22.2L338.72-22.2Q336.52-22.2 334.49-21.58 332.47-20.95 330.32-19.55L330.32-19.55 329.17-21.9Q331.02-23.25 333.57-24.05 336.12-24.85 338.57-24.85L338.57-24.85ZM336.92-2.3Q340.17-2.3 342.24-4.5 344.32-6.7 344.32-10.1L344.32-10.1 344.32-11.75 343.37-11.75Q338.57-11.75 336.02-11.35 333.47-10.95 332.42-9.98 331.37-9 331.37-7.15L331.37-7.15Q331.37-5.05 332.97-3.68 334.57-2.3 336.92-2.3L336.92-2.3ZM358.32 0L355.27 0 355.27-35.25 358.32-35.25 358.32 0ZM375.96-24.85Q380.36-24.85 382.54-22.55 384.71-20.25 384.71-15.6L384.71-15.6 384.71 0 381.71 0 381.71-4.35Q380.66-2.1 378.66-0.88 376.66 0.35 374.06 0.35L374.06 0.35Q371.71 0.35 369.76-0.6 367.81-1.55 366.69-3.25 365.56-4.95 365.56-7L365.56-7Q365.56-9.7 366.96-11.2 368.36-12.7 371.61-13.35 374.86-14 380.66-14L380.66-14 381.71-14 381.71-15.85Q381.71-19.15 380.36-20.68 379.01-22.2 376.11-22.2L376.11-22.2Q373.91-22.2 371.89-21.58 369.86-20.95 367.71-19.55L367.71-19.55 366.56-21.9Q368.41-23.25 370.96-24.05 373.51-24.85 375.96-24.85L375.96-24.85ZM374.31-2.3Q377.56-2.3 379.64-4.5 381.71-6.7 381.71-10.1L381.71-10.1 381.71-11.75 380.76-11.75Q375.96-11.75 373.41-11.35 370.86-10.95 369.81-9.98 368.76-9 368.76-7.15L368.76-7.15Q368.76-5.05 370.36-3.68 371.96-2.3 374.31-2.3L374.31-2.3ZM412.76-24.25L403.31-12.5 413.31 0 409.56 0 401.46-10.15 393.41 0 389.61 0 399.61-12.5 390.16-24.25 393.96-24.25 401.46-14.8 408.96-24.25 412.76-24.25ZM426.81-3.1L435.56-24.25 438.66-24.25 424.36 9 421.26 9 425.21 0 414.81-24.25 418.06-24.25 426.81-3.1Z" opacity="1" transform="matrix(1,0,0,1,0,0)" fill="#ffffff" class="undefined-text-1" data-fill-palette-color="secondary" id="text-1"></path></svg></g></svg></g></svg></g></svg></g><g transform="matrix(1,0,0,1,0,0.531388278783453)"><svg viewBox="0 0 210.12823802080894 212.55531151338488" height="212.55531151338488" width="210.12823802080894"><g><svg xmlns="http://www.w3.org/2000/svg" xmlns:xlink="http://www.w3.org/1999/xlink" version="1.1" x="0" y="0" viewBox="3.435819625854492 4.255000114440918 88.2941665649414 89.31400299072266" enable-background="new 0 0 100 100" xml:space="preserve" height="212.55531151338488" width="210.12823802080894" class="icon-icon-0" data-fill-palette-color="accent" id="icon-0"><path d="M84.554 4.255c-3.956 0-7.176 3.219-7.176 7.174 0 0.387 0.039 0.765 0.099 1.135-4.092 2.764-9.443 7-15.568 12.325-4.184-1.993-8.861-3.113-13.796-3.113-4.216 0-8.241 0.823-11.934 2.303-8.546-4.33-15.099-4.867-18.489-1.478-3.615 3.615-2.559 10.319 1.195 17.912-1.891 4.094-2.954 8.646-2.954 13.445 0 4.956 1.127 9.652 3.138 13.851C0.588 89.162 3.108 91.712 4.198 92.802c0.469 0.469 1.055 0.767 1.897 0.767 1.784 0 4.716-1.335 10.114-5.214 3.358-2.414 7.331-5.58 11.733-9.347 5.522 4.455 12.538 7.131 20.169 7.131 5.171 0 10.056-1.233 14.39-3.409 3.422 1.423 6.504 2.168 9.096 2.168 2.577 0 4.677-0.725 6.17-2.218 3.033-3.033 2.954-8.486-0.202-15.778 1.748-3.965 2.728-8.34 2.728-12.943 0-7.611-2.661-14.608-7.095-20.124 5.15-5.988 9.264-11.255 11.862-15.254 3.721-0.262 6.67-3.365 6.67-7.15C91.73 7.474 88.511 4.255 84.554 4.255zM68.88 33.851c-5.615 6.406-12.317 13.548-19.557 20.787-1.203 1.202-2.43 2.414-3.659 3.618-1.404-0.985-3.109-1.569-4.951-1.569-1.909 0-3.67 0.63-5.102 1.681-5.973-6.453-10.321-12.584-13.106-17.84 4.847-9.204 14.504-15.497 25.608-15.497C56.256 25.03 63.617 28.417 68.88 33.851zM35.322 65.33c0-2.973 2.418-5.39 5.391-5.39 2.972 0 5.39 2.417 5.39 5.39 0 2.972-2.418 5.389-5.39 5.389C37.741 70.719 35.322 68.302 35.322 65.33zM19.991 24.902c1.997-1.996 6.534-1.603 12.413 0.984-4.737 2.662-8.735 6.486-11.606 11.085C18.316 31.162 18.081 26.812 19.991 24.902zM33.389 60.761c-0.832 1.326-1.32 2.889-1.32 4.569 0 1.666 0.483 3.22 1.304 4.542-1.906 1.731-3.707 3.335-5.405 4.817-5.411-5.26-8.783-12.608-8.783-20.731 0-3.423 0.602-6.707 1.697-9.756C24.099 49.713 28.496 55.486 33.389 60.761zM6.826 90.183c0.652-2.084 4.084-7.877 13.913-19.329 1.348 2.176 2.946 4.18 4.756 5.971C15.18 85.626 9.106 89.5 6.826 90.183zM48.112 82.885c-6.647 0-12.774-2.26-17.665-6.044 1.661-1.451 3.373-2.979 5.129-4.575 1.438 1.066 3.211 1.707 5.136 1.707 1.897 0 3.649-0.623 5.076-1.663 4.52 3.62 8.853 6.503 12.835 8.59C55.362 82.176 51.82 82.885 48.112 82.885zM75.468 80.378c-1.517 1.516-4.78 1.675-9.296 0.201 3.787-2.577 6.999-5.942 9.397-9.857C77.141 75.275 77.128 78.719 75.468 80.378zM77.038 53.958c0 10.755-5.903 20.15-14.637 25.135-4.148-1.89-9.028-4.896-14.386-9.16 0.844-1.336 1.341-2.911 1.341-4.603 0-1.752-0.526-3.379-1.424-4.741 1.24-1.215 2.479-2.438 3.691-3.65 7.151-7.151 13.796-14.222 19.403-20.606C74.791 41.216 77.038 47.327 77.038 53.958zM64.959 26.553c5.377-4.637 10.091-8.369 13.792-10.919 0.724 0.995 1.693 1.796 2.82 2.314-2.49 3.659-6.115 8.261-10.553 13.435C69.204 29.542 67.171 27.917 64.959 26.553zM84.554 15.352c-2.162 0-3.922-1.76-3.922-3.922 0-2.162 1.76-3.92 3.922-3.92 2.163 0 3.923 1.758 3.923 3.92C88.477 13.592 86.717 15.352 84.554 15.352z" fill="#fe6152" data-fill-palette-color="accent"></path><circle cx="84.426" cy="36.093" r="2.9" fill="#fe6152" data-fill-palette-color="accent"></circle><circle cx="63.021" cy="64.038" r="5.9" fill="#fe6152" data-fill-palette-color="accent"></circle><circle cx="42.211" cy="77.572" r="1.2" fill="#fe6152" data-fill-palette-color="accent"></circle><circle cx="70.555" cy="46.986" r="1.2" fill="#fe6152" data-fill-palette-color="accent"></circle><circle cx="40.963" cy="32.373" r="1.9" fill="#fe6152" data-fill-palette-color="accent"></circle><circle cx="24.738" cy="62.178" r="1.9" fill="#fe6152" data-fill-palette-color="accent"></circle><circle cx="42.425" cy="46.986" r="3.3" fill="#fe6152" data-fill-palette-color="accent"></circle></svg></g></svg></g></svg></g></svg><rect width="395.52" height="132.82116986031338" fill="none" stroke="none" visibility="hidden"></rect></g></svg></g></svg>